<?xml version="1.0" encoding="UTF-8"?>
<!DOCTYPE svg PUBLIC "-//W3C//DTD SVG 1.1//EN" "http://www.w3.org/Graphics/SVG/1.1/DTD/svg11.dtd">
<svg xmlns="http://www.w3.org/2000/svg" version="1.1" width="1110px" height="554px" style="shape-rendering:geometricPrecision; text-rendering:geometricPrecision; image-rendering:optimizeQuality; fill-rule:evenodd; clip-rule:evenodd" xmlns:xlink="http://www.w3.org/1999/xlink">
<g><path style="opacity:0" fill="#000000" d="M -0.5,-0.5 C 369.5,-0.5 739.5,-0.5 1109.5,-0.5C 1109.5,184.167 1109.5,368.833 1109.5,553.5C 739.5,553.5 369.5,553.5 -0.5,553.5C -0.5,368.833 -0.5,184.167 -0.5,-0.5 Z"/></g>
<g><path style="opacity:1" fill="#3a75ed" d="M 193.5,161.5 C 194.833,161.5 196.167,161.5 197.5,161.5C 196.604,170.315 194.937,178.982 192.5,187.5C 181.732,190.313 171.399,194.313 161.5,199.5C 153.641,195.071 146.307,189.905 139.5,184C 145.97,178.874 152.97,174.541 160.5,171C 171.309,166.719 182.309,163.552 193.5,161.5 Z"/></g>
<g><path style="opacity:1" fill="#3a75ed" d="M 217.5,161.5 C 269.114,168.615 302.948,196.949 319,246.5C 320.679,253.086 321.845,259.752 322.5,266.5C 313.736,265.347 305.069,263.68 296.5,261.5C 289.57,230.138 271.57,207.638 242.5,194C 236.021,191.451 229.354,189.618 222.5,188.5C 220.959,179.465 219.293,170.465 217.5,161.5 Z"/></g>
<g><path style="opacity:1" fill="#3a75ed" d="M 207.5,161.5 C 211.581,178.242 214.915,195.242 217.5,212.5C 247.149,218.665 265.483,236.498 272.5,266C 289.381,269.041 306.047,272.708 322.5,277C 305.464,280.108 288.464,283.274 271.5,286.5C 270.641,293.578 268.474,300.245 265,306.5C 264.333,307.833 264.333,309.167 265,310.5C 281,333.833 297,357.167 313,380.5C 313.688,381.332 313.521,381.998 312.5,382.5C 288.415,365.74 264.082,349.406 239.5,333.5C 232.485,336.171 225.485,338.838 218.5,341.5C 214.683,358.087 211.183,374.753 208,391.5C 203.812,374.71 200.312,357.71 197.5,340.5C 176.232,336.728 160.398,325.394 150,306.5C 147.005,300.193 144.505,293.693 142.5,287C 125.619,283.959 108.953,280.292 92.5,276C 109.433,272.38 126.433,269.213 143.5,266.5C 144.359,259.422 146.526,252.755 150,246.5C 150.667,245.167 150.667,243.833 150,242.5C 133.833,218.833 117.667,195.167 101.5,171.5C 102.002,170.479 102.668,170.312 103.5,171C 127.115,187.789 151.115,203.956 175.5,219.5C 182.496,216.335 189.662,213.669 197,211.5C 200.444,194.78 203.944,178.113 207.5,161.5 Z"/></g>
<g><path style="opacity:1" fill="#3a75ed" d="M 114.5,208.5 C 115.496,208.414 116.329,208.748 117,209.5C 121.5,216.5 126,223.5 130.5,230.5C 125.04,240.214 121.373,250.547 119.5,261.5C 110.58,263.551 101.58,265.217 92.5,266.5C 94.5349,245.049 101.868,225.716 114.5,208.5 Z"/></g>
<g><path style="opacity:1" fill="#3a75ed" d="M 414.5,213.5 C 426.4,212.946 438.067,214.279 449.5,217.5C 450.833,225.5 450.833,233.5 449.5,241.5C 440.091,238.453 430.424,236.787 420.5,236.5C 404.06,236.44 395.727,244.607 395.5,261C 395.148,269.1 397.481,276.267 402.5,282.5C 405.221,284.527 408.221,286.027 411.5,287C 419.5,287.667 427.5,287.667 435.5,287C 440.625,286.345 445.458,284.845 450,282.5C 450.5,290.827 450.666,299.16 450.5,307.5C 434.509,311.129 418.509,311.295 402.5,308C 388.176,302.342 378.676,292.176 374,277.5C 367.21,242.871 380.71,221.537 414.5,213.5 Z"/></g>
<g><path style="opacity:1" fill="#222831 " d="M 205.5,226.5 C 236.927,228.595 254.26,245.261 257.5,276.5C 257.028,282.641 255.861,288.641 254,294.5C 245.748,281.661 237.248,268.994 228.5,256.5C 215.5,247.667 202.5,238.833 189.5,230C 194.841,228.248 200.174,227.081 205.5,226.5 Z"/></g>
<g><path style="opacity:1" fill="#3b76ef" d="M 487.5,231.5 C 502.737,229.374 516.403,232.874 528.5,242C 541.775,259.014 542.942,276.847 532,295.5C 518.132,309.759 501.632,313.925 482.5,308C 469.744,302.911 461.577,293.745 458,280.5C 454.099,255.602 463.932,239.269 487.5,231.5 Z"/></g>
<g><path style="opacity:1" fill="#3b76f0" d="M 577.5,231.5 C 592.042,228.564 603.709,232.898 612.5,244.5C 622.274,231.746 634.941,227.913 650.5,233C 663.522,237.199 671.356,246.033 674,259.5C 674.5,276.163 674.667,292.83 674.5,309.5C 666.833,309.5 659.167,309.5 651.5,309.5C 651.667,294.163 651.5,278.83 651,263.5C 647.72,254.111 641.22,250.944 631.5,254C 628.272,255.563 626.105,258.063 625,261.5C 624.5,277.497 624.333,293.497 624.5,309.5C 616.5,309.5 608.5,309.5 600.5,309.5C 600.667,294.163 600.5,278.83 600,263.5C 598.715,256.344 594.382,253.011 587,253.5C 580.517,253.306 576.183,256.306 574,262.5C 573.5,278.163 573.333,293.83 573.5,309.5C 565.833,309.5 558.167,309.5 550.5,309.5C 550.053,291.111 550.553,272.778 552,254.5C 556.59,242.406 565.09,234.74 577.5,231.5 Z"/></g>
<g><path style="opacity:1" fill="#3b76ef" d="M 713.5,303.5 C 713.44,302.957 713.107,302.624 712.5,302.5C 711.501,315.149 711.168,327.816 711.5,340.5C 703.833,340.5 696.167,340.5 688.5,340.5C 688.333,314.498 688.5,288.498 689,262.5C 692.387,246.113 702.22,235.946 718.5,232C 737.505,228.22 753.005,233.72 765,248.5C 771.112,260.73 772.112,273.397 768,286.5C 758.58,305.627 743.414,313.127 722.5,309C 719.102,307.643 716.102,305.81 713.5,303.5 Z"/></g>
<g><path style="opacity:1" fill="#3b76ef" d="M 808.5,231.5 C 846.504,229.341 863.671,247.341 860,285.5C 860.766,293.431 862.599,301.097 865.5,308.5C 857.855,309.665 850.188,309.831 842.5,309C 841.077,305.491 839.577,301.991 838,298.5C 833.768,304.726 827.934,308.559 820.5,310C 798.211,311.264 784.045,301.097 778,279.5C 774.334,254.464 784.501,238.464 808.5,231.5 Z"/></g>
<g><path style="opacity:1" fill="#3a75ed" d="M 894.5,231.5 C 903.839,231.334 913.173,231.5 922.5,232C 926.925,232.417 931.258,233.251 935.5,234.5C 936.497,241.803 936.831,249.137 936.5,256.5C 922.97,253.723 909.303,252.889 895.5,254C 894.075,255.714 894.408,257.047 896.5,258C 907.029,259.442 917.362,261.775 927.5,265C 939.946,272.002 943.446,282.168 938,295.5C 931.857,304.326 923.357,309.159 912.5,310C 898.699,311.068 885.032,310.235 871.5,307.5C 871.5,300.167 871.5,292.833 871.5,285.5C 885.999,288.441 900.666,289.274 915.5,288C 916.428,287.612 917.095,286.945 917.5,286C 915.211,284.078 912.545,282.745 909.5,282C 899.288,281.226 889.621,278.559 880.5,274C 868.5,262 868.5,250 880.5,238C 884.877,234.975 889.544,232.808 894.5,231.5 Z"/></g>
<g><path style="opacity:1" fill="#3a75ee" d="M 971.5,231.5 C 980.506,231.334 989.506,231.5 998.5,232C 1002.93,232.417 1007.26,233.251 1011.5,234.5C 1012.5,241.803 1012.83,249.137 1012.5,256.5C 999.304,253.738 985.971,252.905 972.5,254C 970.043,255.154 970.043,256.488 972.5,258C 983.045,259.411 993.378,261.744 1003.5,265C 1014.75,270.408 1018.92,279.241 1016,291.5C 1013.96,298.205 1009.79,303.038 1003.5,306C 985.002,311.482 966.336,311.982 947.5,307.5C 947.169,300.137 947.503,292.803 948.5,285.5C 962.691,288.305 977.025,289.138 991.5,288C 992.428,287.612 993.095,286.945 993.5,286C 991.287,283.919 988.62,282.585 985.5,282C 974.235,281.273 963.902,277.94 954.5,272C 948.933,265.143 947.1,257.31 949,248.5C 950.886,244.56 953.386,241.06 956.5,238C 961.367,235.226 966.367,233.059 971.5,231.5 Z"/></g>
<g><path style="opacity:1" fill="#222831 " d="M 490.5,253.5 C 513.586,251.993 520.753,261.993 512,283.5C 502.331,290.459 492.998,290.125 484,282.5C 477.681,270.72 479.848,261.054 490.5,253.5 Z"/></g>
<g><path style="opacity:1" fill="#222831 " d="M 721.5,253.5 C 743.216,251.284 751.049,260.617 745,281.5C 738.055,288.452 729.888,290.285 720.5,287C 716.056,284.889 713.556,281.389 713,276.5C 710.638,266.738 713.471,259.071 721.5,253.5 Z"/></g>
<g><path style="opacity:1" fill="#222831 " d="M 811.5,253.5 C 833.17,252.132 840.337,261.799 833,282.5C 827.897,287.654 821.73,289.487 814.5,288C 806.247,286.745 801.747,281.912 801,273.5C 799.511,264.143 803.011,257.477 811.5,253.5 Z"/></g>
<g><path style="opacity:1" fill="#222831 " d="M 160.5,259.5 C 169.969,271.748 178.969,284.415 187.5,297.5C 199.833,306 212.167,314.5 224.5,323C 201.326,330.249 182.16,324.416 167,305.5C 157.724,291.185 155.557,275.852 160.5,259.5 Z"/></g>
<g><path style="opacity:1" fill="#222831 " d="M 204.5,264.5 C 217.472,265.276 221.638,271.609 217,283.5C 212.058,288.449 206.558,289.282 200.5,286C 194.932,281.226 194.099,275.726 198,269.5C 199.805,267.174 201.972,265.508 204.5,264.5 Z"/></g>
<g><path style="opacity:1" fill="#3a75ed" d="M 92.5,286.5 C 101.264,287.653 109.931,289.32 118.5,291.5C 128.16,331.16 152.826,355.826 192.5,365.5C 194.938,374.021 196.604,382.687 197.5,391.5C 147.136,384.894 113.636,357.56 97,309.5C 94.7026,301.979 93.2026,294.312 92.5,286.5 Z"/></g>
<g><path style="opacity:1" fill="#3a75ed" d="M 317.5,286.5 C 319.167,286.5 320.833,286.5 322.5,286.5C 320.586,308.087 313.086,327.421 300,344.5C 294.587,337.342 289.421,330.009 284.5,322.5C 289.902,312.697 293.902,302.364 296.5,291.5C 303.647,289.942 310.647,288.275 317.5,286.5 Z"/></g>
<g><path style="opacity:1" fill="#234b98" d="M 713.5,303.5 C 712.833,315.833 712.167,328.167 711.5,340.5C 711.168,327.816 711.501,315.149 712.5,302.5C 713.107,302.624 713.44,302.957 713.5,303.5 Z"/></g>
<g><path style="opacity:1" fill="#3a75ed" d="M 252.5,353.5 C 259.279,357.395 265.945,361.561 272.5,366C 274.255,366.72 275.089,367.887 275,369.5C 257.988,382.23 238.821,389.563 217.5,391.5C 218.653,382.736 220.32,374.069 222.5,365.5C 233.141,362.848 243.141,358.848 252.5,353.5 Z"/></g>
</svg>
